<svg xmlns="http://www.w3.org/2000/svg" viewBox="0 0 1000.12 1000"><title>logo-v2</title><path d="M999.85,502.22c0-.47.09-.95.15-1.42-.08-4.5-.87-9-.57-13.47.36-7-.66-13.91-.66-20.88-.82-3.07-.17-6.29-.89-9.36-.29-5.22-1-10.4-1.43-15.6-.32-2-.57-4-.84-5.95a495.43,495.43,0,0,0-55.24-172.49A503.46,503.46,0,0,0,865,158.28c-6-5.74-11-12.49-17.5-17.69C768.08,63.1,661.9,13.64,551.43,2.73c-7.62-1-15.34-1.12-22.93-2-7.73.16-15.39-1-23.1-.66C411-1,316.16,24.91,236,75.08a502.54,502.54,0,0,0-110.62,93.34A496.75,496.75,0,0,0,3.85,436.66,369.33,369.33,0,0,0,.52,476.35a15.07,15.07,0,0,0-.5,4.09C.08,500.71-.44,521,1.59,541.21A494.77,494.77,0,0,0,58.51,735.62,500.12,500.12,0,0,0,439.24,996.38c10.1,1,20.18,2.27,30.33,2.53,25,2.05,50.12.87,75.09-.69l1-.55a73.17,73.17,0,0,0,11.47-1c3-.23,6.07-.61,9.08-1.13a470,470,0,0,0,53.16-9.94c86.89-21,167.48-66.38,231.19-128.95.88,4.92,1.87,9.82,3,14.7,4.11,16.06,9.68,31.87,18,46.19,11.45,21.71,29.35,39.42,50.07,51.91,24.06,14.59,51.56,23.06,78.44,30.53l.12-497.78ZM153,736.23c30.53-102.3,61.58-204.43,92.2-306.7,8-25.63,16.73-51.13,28.66-75.15,13.51-25.94,31.83-50,56.33-65.9,20.28-13,43.79-20.13,67.52-22.59,17.58-2.11,35.26-2.21,52.94-2.25Q384.2,500,317.49,736.34C262.64,736.22,207.79,736.43,153,736.23Zm363.59.07c-54.82,0-109.63-.05-164.45,0C382.64,633.26,414,530.42,444.86,427.42c7.91-25,16.41-50,28.26-73.4,15.93-31,39.53-59.27,71.17-73.93,32.76-15.67,69.75-16.53,105.23-16.39C605.52,421.32,560.68,578.71,516.54,736.3Zm197,.07c-54.78-.05-109.57-.2-164.33.08,30.69-103.37,62.07-206.51,93-309.79,8.74-27.78,18.43-55.45,32.5-80.95,8.13-14,17.58-27.43,29.18-38.72,16.54-17.4,38.11-29.32,60.93-35.57,26.53-7.35,54.23-7.82,81.52-7.72-3.86,16.24-8.87,32.19-13.19,48.32Q773.42,524.21,713.51,736.36Z" transform="translate(0 0)" style="fill:#ff6900"/></svg>